<svg width="18" height="18" viewBox="0 0 18 18" fill="none" xmlns="http://www.w3.org/2000/svg">
    <path d="M15.66 2.32425C15.1102 1.7745 14.4487 1.5 13.6747 1.5H4.3095C3.5355 1.5 2.874 1.7745 2.32425 2.32425C1.7745 2.874 1.5 3.5355 1.5 4.3095V13.6747C1.5 14.4487 1.7745 15.1102 2.32425 15.66C2.874 16.2097 3.5355 16.4842 4.3095 16.4842H6.495C6.6375 16.4842 6.74475 16.479 6.81675 16.4692C6.90052 16.4525 6.97613 16.4078 7.03125 16.3425C7.1025 16.2675 7.1385 16.1587 7.1385 16.0162L7.13325 15.3525C7.13025 14.9295 7.12875 14.595 7.12875 14.3475L6.90375 14.3865C6.76125 14.4127 6.58125 14.424 6.363 14.421C6.13552 14.4168 5.90876 14.394 5.685 14.3527C5.4468 14.3088 5.22257 14.2085 5.031 14.0602C4.83037 13.9085 4.68073 13.6992 4.602 13.4602L4.5045 13.2352C4.42232 13.0578 4.31908 12.8908 4.197 12.738C4.0575 12.5557 3.91575 12.4327 3.7725 12.3675L3.705 12.3187C3.65793 12.285 3.61512 12.2458 3.5775 12.2017C3.54157 12.1609 3.51199 12.1149 3.48975 12.0652C3.47025 12.0195 3.48675 11.982 3.5385 11.9527C3.591 11.9227 3.68475 11.9085 3.822 11.9085L4.017 11.9385C4.14675 11.964 4.308 12.042 4.49925 12.1717C4.6928 12.3037 4.85447 12.4772 4.9725 12.6795C5.1225 12.9457 5.3025 13.149 5.514 13.2892C5.7255 13.4287 5.9385 13.4992 6.153 13.4992C6.3675 13.4992 6.55275 13.4827 6.7095 13.4505C6.86108 13.4192 7.00838 13.3698 7.14825 13.3035C7.20675 12.8685 7.36575 12.5325 7.626 12.2985C7.28878 12.2654 6.95457 12.2068 6.62625 12.123C6.30584 12.035 5.9977 11.9072 5.709 11.7427C5.40693 11.5783 5.14013 11.3561 4.92375 11.0887C4.716 10.8285 4.545 10.4872 4.4115 10.065C4.27875 9.642 4.212 9.15375 4.212 8.601C4.212 7.81425 4.4685 7.1445 4.98225 6.591C4.74225 6 4.76475 5.33625 5.0505 4.602C5.2395 4.54275 5.51925 4.587 5.88975 4.73325C6.26025 4.8795 6.53175 5.00475 6.70425 5.10825C6.87675 5.21325 7.01475 5.301 7.119 5.37225C7.72873 5.20256 8.35885 5.11727 8.99175 5.11875C9.636 5.11875 10.26 5.2035 10.8652 5.37225L11.2357 5.13825C11.5207 4.96714 11.8213 4.82349 12.1335 4.70925C12.4785 4.57875 12.741 4.5435 12.924 4.602C13.2165 5.337 13.242 6 13.0012 6.59175C13.515 7.1445 13.7722 7.81425 13.7722 8.60175C13.7722 9.1545 13.7055 9.64425 13.572 10.0695C13.4392 10.4955 13.2667 10.8367 13.0552 11.094C12.8351 11.3579 12.5671 11.578 12.2655 11.7427C11.9505 11.9182 11.6445 12.045 11.3482 12.123C11.02 12.207 10.6857 12.266 10.3485 12.2992C10.686 12.5917 10.8555 13.053 10.8555 13.6837V16.0162C10.8555 16.1265 10.8712 16.2157 10.9042 16.284C10.9194 16.3169 10.941 16.3464 10.9678 16.3707C10.9946 16.3951 11.0261 16.4138 11.0602 16.4257C11.1322 16.4512 11.1952 16.4677 11.2507 16.4737C11.3062 16.4812 11.3857 16.4835 11.4892 16.4835H13.6747C14.4487 16.4835 15.1102 16.209 15.66 15.6592C16.209 15.1102 16.4842 14.448 16.4842 13.674V4.3095C16.4842 3.5355 16.2097 2.874 15.66 2.32425Z"
          fill="black"/>
</svg>
